<svg xmlns="http://www.w3.org/2000/svg" viewBox="0 0 64 64" fill="none">
  <!-- Background circle -->
  <circle cx="32" cy="32" r="32" fill="#0f0f0f"/>
  <!-- Ghost body -->
  <path d="M20 38 C20 26 26 18 32 18 C38 18 44 26 44 38 L44 48 L40 44 L36 48 L32 44 L28 48 L24 44 L20 48 Z"
        fill="#a78bfa" opacity="0.95"/>
  <!-- Ghost eyes -->
  <circle cx="27" cy="33" r="3" fill="#0f0f0f"/>
  <circle cx="37" cy="33" r="3" fill="#0f0f0f"/>
  <!-- Eye shine -->
  <circle cx="28.2" cy="31.8" r="1" fill="white" opacity="0.8"/>
  <circle cx="38.2" cy="31.8" r="1" fill="white" opacity="0.8"/>
  <!-- AI sparkle top-right -->
  <path d="M46 14 L47.2 17.2 L50 16 L47.2 18.8 L48 22 L46 19.5 L44 22 L44.8 18.8 L42 16 L44.8 17.2 Z"
        fill="#c4b5fd" opacity="0.9"/>
  <!-- Small sparkle -->
  <path d="M51 23 L51.7 24.9 L53.5 24.2 L51.7 25.9 L52.2 28 L51 26.6 L49.8 28 L50.3 25.9 L48.5 24.2 L50.3 24.9 Z"
        fill="#ddd6fe" opacity="0.7"/>
</svg>
